{
  "accessors": [
    {
      "bufferView": 2,
      "componentType": 5126,
      "count": 9225,
      "max": [
        2.0842440128326416,
        1.3258119821548462,
        1.3620209693908691
      ],
      "min": [
        -2.30861496925354,
        -2.4325149059295654,
        -0.08807700127363205
      ],
      "type": "VEC3"
    },
    {
      "bufferView": 2,
      "byteOffset": 110700,
      "componentType": 5126,
      "count": 9225,
      "max": [
        0.9999974966049194,
        0.9999393224716187,
        1.0
      ],
      "min": [
        -0.999992847442627,
        -0.9999243021011353,
        -1.0
      ],
      "type": "VEC3"
    },
    {
      "bufferView": 1,
      "componentType": 5126,
      "count": 9225,
      "max": [
        0.9840859770774841,
        0.9995930194854736
      ],
      "min": [
        0.0004070000140927732,
        0.0004070000140927732
      ],
      "type": "VEC2"
    },
    {
      "bufferView": 0,
      "componentType": 5125,
      "count": 48528,
      "type": "SCALAR"
    },
    {
      "bufferView": 2,
      "byteOffset": 221400,
      "componentType": 5126,
      "count": 9188,
      "max": [
        2.0978429317474365,
        1.3472650051116943,
        1.3819719552993774
      ],
      "min": [
        -2.3232510089874268,
        -2.4470860958099365,
        -0.10507699847221375
      ],
      "type": "VEC3"
    },
    {
      "bufferView": 2,
      "byteOffset": 331656,
      "componentType": 5126,
      "count": 9188,
      "max": [
        0.9999940395355225,
        0.9999898672103882,
        1.0
      ],
      "min": [
        -0.9999898672103882,
        -0.9999898672103882,
        -1.0
      ],
      "type": "VEC3"
    },
    {
      "bufferView": 1,
      "byteOffset": 73800,
      "componentType": 5126,
      "count": 9188,
      "max": [
        0.9840859770774841,
        0.9995930194854736
      ],
      "min": [
        0.0004070000140927732,
        0.0004070000140927732
      ],
      "type": "VEC2"
    },
    {
      "bufferView": 0,
      "byteOffset": 194112,
      "componentType": 5125,
      "count": 48336,
      "type": "SCALAR"
    },
    {
      "bufferView": 2,
      "byteOffset": 441912,
      "componentType": 5126,
      "count": 4,
      "max": [
        6.991567134857178,
        6.528600215911865,
        -0.05770599842071533
      ],
      "min": [
        -6.991567134857178,
        -7.45453405380249,
        -0.05770599842071533
      ],
      "type": "VEC3"
    },
    {
      "bufferView": 2,
      "byteOffset": 441960,
      "componentType": 5126,
      "count": 4,
      "max": [
        -0.0,
        0.0,
        1.0
      ],
      "min": [
        -0.0,
        0.0,
        1.0
      ],
      "type": "VEC3"
    },
    {
      "bufferView": 1,
      "byteOffset": 147304,
      "componentType": 5126,
      "count": 4,
      "max": [
        1.0,
        1.0
      ],
      "min": [
        0.0,
        0.0
      ],
      "type": "VEC2"
    },
    {
      "bufferView": 0,
      "byteOffset": 387456,
      "componentType": 5125,
      "count": 6,
      "type": "SCALAR"
    }
  ],
  "asset": {
    "extras": {
      "author": "LiliumLetifer (https://sketchfab.com/LiliumLetifer)",
      "license": "CC-BY-4.0 (http://creativecommons.org/licenses/by/4.0/)",
      "source": "https://sketchfab.com/3d-models/bear-of-clouds-91f76fc03f274e2694cbb3564165d964",
      "title": "Bear of Clouds"
    },
    "generator": "Sketchfab-15.50.0",
    "version": "2.0"
  },
  "bufferViews": [
    {
      "buffer": 0,
      "byteLength": 387480,
      "name": "floatBufferViews",
      "target": 34963
    },
    {
      "buffer": 0,
      "byteLength": 147336,
      "byteOffset": 387480,
      "byteStride": 8,
      "name": "floatBufferViews",
      "target": 34962
    },
    {
      "buffer": 0,
      "byteLength": 442008,
      "byteOffset": 534816,
      "byteStride": 12,
      "name": "floatBufferViews",
      "target": 34962
    }
  ],
  "buffers": [
    {
      "byteLength": 976824,
      "uri": "scene.bin"
    }
  ],
  "extensionsUsed": [
    "KHR_materials_unlit"
  ],
  "images": [
    {
      "uri": "textures/Material_baseColor.png"
    },
    {
      "uri": "textures/verde_baseColor.png"
    }
  ],
  "materials": [
    {
      "doubleSided": true,
      "extensions": {
        "KHR_materials_unlit": {}
      },
      "name": "Material",
      "pbrMetallicRoughness": {
        "baseColorTexture": {
          "index": 0
        },
        "metallicFactor": 0.0
      }
    },
    {
      "extensions": {
        "KHR_materials_unlit": {}
      },
      "name": "Outline",
      "pbrMetallicRoughness": {
        "baseColorFactor": [
          0.0,
          0.0,
          0.0,
          1.0
        ],
        "metallicFactor": 0.0
      }
    },
    {
      "alphaMode": "BLEND",
      "doubleSided": true,
      "extensions": {
        "KHR_materials_unlit": {}
      },
      "name": "verde",
      "pbrMetallicRoughness": {
        "baseColorFactor": [
          0.3277780980565419,
          0.8879231178819663,
          0.17788841598362914,
          1.0
        ],
        "baseColorTexture": {
          "index": 1
        },
        "metallicFactor": 0.0
      }
    }
  ],
  "meshes": [
    {
      "name": "Object_0",
      "primitives": [
        {
          "attributes": {
            "NORMAL": 1,
            "POSITION": 0,
            "TEXCOORD_0": 2
          },
          "indices": 3,
          "material": 0,
          "mode": 4
        }
      ]
    },
    {
      "name": "Object_1",
      "primitives": [
        {
          "attributes": {
            "NORMAL": 5,
            "POSITION": 4,
            "TEXCOORD_0": 6
          },
          "indices": 7,
          "material": 1,
          "mode": 4
        }
      ]
    },
    {
      "name": "Object_2",
      "primitives": [
        {
          "attributes": {
            "NORMAL": 9,
            "POSITION": 8,
            "TEXCOORD_0": 10
          },
          "indices": 11,
          "material": 2,
          "mode": 4
        }
      ]
    }
  ],
  "nodes": [
    {
      "children": [
        1
      ],
      "matrix": [
        0.48238494992256165,
        0.0,
        0.0,
        0.0,
        0.0,
        1.0711097562733621e-16,
        -0.48238494992256165,
        0.0,
        0.0,
        0.48238494992256165,
        1.0711097562733621e-16,
        0.0,
        0.0,
        0.0,
        0.0,
        1.0
      ],
      "name": "Sketchfab_model"
    },
    {
      "children": [
        2,
        3,
        4
      ],
      "name": "Bear of Clouds.obj.cleaner.materialmerger.gles"
    },
    {
      "mesh": 0,
      "name": "Object_2"
    },
    {
      "mesh": 1,
      "name": "Object_3"
    },
    {
      "mesh": 2,
      "name": "Object_4"
    }
  ],
  "samplers": [
    {
      "magFilter": 9729,
      "minFilter": 9987,
      "wrapS": 10497,
      "wrapT": 10497
    }
  ],
  "scene": 0,
  "scenes": [
    {
      "name": "Sketchfab_Scene",
      "nodes": [
        0
      ]
    }
  ],
  "textures": [
    {
      "sampler": 0,
      "source": 0
    },
    {
      "sampler": 0,
      "source": 1
    }
  ]
}
